<?xml version="1.0" encoding="UTF-8"?>
<svg width="64" height="64" viewBox="0 0 64 64" fill="none" xmlns="http://www.w3.org/2000/svg" role="img" aria-label="Consulting Toolkit">
  <defs>
    <linearGradient id="g1" x1="8" y1="8" x2="56" y2="56" gradientUnits="userSpaceOnUse">
      <stop stop-color="#6366F1"/>
      <stop offset="1" stop-color="#A855F7"/>
    </linearGradient>
    <linearGradient id="g2" x1="16" y1="16" x2="48" y2="48" gradientUnits="userSpaceOnUse">
      <stop stop-color="#22D3EE"/>
      <stop offset="1" stop-color="#10B981"/>
    </linearGradient>
    <filter id="shadow" x="-20%" y="-20%" width="140%" height="140%">
      <feDropShadow dx="0" dy="2" stdDeviation="2" flood-color="#000" flood-opacity="0.35"/>
    </filter>
  </defs>

  <!-- Outer rounded frame -->
  <rect x="4" y="4" width="56" height="56" rx="14" fill="#0B0B0F"/>
  <rect x="4.75" y="4.75" width="54.5" height="54.5" rx="13.25" fill="url(#g1)" opacity="0.08"/>
  <rect x="4.75" y="4.75" width="54.5" height="54.5" rx="13.25" stroke="url(#g1)" stroke-opacity="0.6" stroke-width="1.5"/>

  <!-- Hexagon network mark -->
  <g filter="url(#shadow)">
    <path d="M32 14l13 7.5v21L32 50l-13-7.5v-21L32 14z" fill="none" stroke="url(#g2)" stroke-width="2" stroke-linejoin="round"/>

    <!-- inner connectors -->
    <path d="M19 21.5l13 7.5 13-7.5M19 42.5l13-7.5 13 7.5M32 22.5v19" stroke="url(#g1)" stroke-width="1.6" stroke-linecap="round" opacity="0.9"/>

    <!-- nodes -->
    <circle cx="19" cy="21.5" r="2.6" fill="#0B0B0F" stroke="url(#g2)" stroke-width="1.6"/>
    <circle cx="45" cy="21.5" r="2.6" fill="#0B0B0F" stroke="url(#g2)" stroke-width="1.6"/>
    <circle cx="19" cy="42.5" r="2.6" fill="#0B0B0F" stroke="url(#g2)" stroke-width="1.6"/>
    <circle cx="45" cy="42.5" r="2.6" fill="#0B0B0F" stroke="url(#g2)" stroke-width="1.6"/>
    <circle cx="32" cy="30" r="2.6" fill="#0B0B0F" stroke="url(#g1)" stroke-width="1.6"/>
    <circle cx="32" cy="35" r="2.6" fill="#0B0B0F" stroke="url(#g1)" stroke-width="1.6"/>
  </g>
</svg>
